# xmcd
#
# Track frame offsets: 
#        150
#        19504
#        33100
#        46224
#        54446
#        69690
#        83905
#        95787
#        117272
#        127808
#        143181
#
# Disc length: 2183 seconds
#
# Revision: 0
# Processed by: cddbd v1.5.2PL0 Copyright (c) Steve Scherf et al.
# Submitted via: ExactAudioCopy v0.99pb3
#
DISCID=8c08850b
DTITLE=Justus and the Montanas - Americana Gold
DYEAR=2006
DGENRE=Country
TTITLE0=Back in the Good Old Days
TTITLE1=Trail with a Yodel
TTITLE2=Apple Valley Song
TTITLE3=Red Mountain
TTITLE4=Somewhere Over the Mountain
TTITLE5=The Land
TTITLE6=Americana Gold
TTITLE7=Ghost Rider in the Sky/The Good, the Bad, and the Ugly
TTITLE8=JoD, You Lady You
TTITLE9=The Auctioneer
TTITLE10=Sundown on Prairie
EXTD=
EXTT0=
EXTT1=
EXTT2=
EXTT3=
EXTT4=
EXTT5=
EXTT6=
EXTT7=
EXTT8=
EXTT9=
EXTT10=
PLAYORDER=
